<?xml version="1.0" encoding="UTF-8"?>
<svg width="797px" height="180px" viewBox="0 0 797 180" version="1.1" xmlns="http://www.w3.org/2000/svg" xmlns:xlink="http://www.w3.org/1999/xlink">
    <!-- Generator: Sketch 53.2 (72643) - https://sketchapp.com -->
    <title>Logos/Artifakt/Artifakt-Logo-Dark</title>
    <desc>Created with Sketch.</desc>
    <defs>
        <linearGradient x1="104.977727%" y1="22.0966932%" x2="34.2069037%" y2="58.9746674%" id="linearGradient-1">
            <stop stop-color="#4BD8FF" offset="0%"/>
            <stop stop-color="#7160FB" offset="100%"/>
        </linearGradient>
    </defs>
    <g id="Logos/Artifakt/Artifakt-Logo-Dark" stroke="none" stroke-width="1" fill="none" fill-rule="evenodd">
        <g id="logo-big-1" fill-rule="nonzero">
            <path d="M522.496094,61.382812 C526.847656,61.382812 529.789062,58.144531 529.789062,54 L529.789062,53.871094 C529.789062,49.855469 526.847656,46.488281 522.496094,46.488281 C518.148438,46.488281 515.203125,49.726562 515.203125,53.871094 L515.203125,54 C515.332031,58.144531 518.273438,61.382812 522.496094,61.382812 Z" id="Path" fill="#FFFFFF"/>
            <path d="M529.789062,81.972656 L515.332031,81.972656 L515.332031,146.203125 C515.332031,150.214844 518.273438,153.582031 522.625,153.582031 C526.976562,153.582031 529.917969,150.34375 529.917969,146.203125 L529.789062,81.972656 Z" id="Path" fill="#FFFFFF"/>
            <path d="M387.265625,140.890625 C384.835938,140.503906 383.046875,137.785156 383.046875,133.511719 L383.046875,81.972656 L368.589844,81.972656 L368.589844,88.316406 L368.714844,88.316406 C363.085938,84.300781 356.050781,81.972656 347.863281,81.972656 C326.367188,81.972656 312.550781,98.027344 312.550781,117.710938 C312.550781,137.394531 326.367188,153.453125 347.863281,153.453125 C357.203125,153.453125 365.132812,150.34375 371.019531,145.296875 C373.320312,149.957031 377.542969,153.453125 385.347656,153.453125 C385.730469,153.453125 386.882812,153.453125 387.265625,153.453125 C390.722656,153.453125 393.535156,150.605469 393.535156,147.109375 C393.535156,143.613281 390.722656,140.890625 387.265625,140.890625 Z M347.734375,141.023438 C334.171875,141.023438 326.878906,130.402344 326.878906,117.710938 C326.878906,105.023438 334.171875,94.402344 347.734375,94.402344 C361.296875,94.402344 368.589844,105.023438 368.589844,117.710938 C368.589844,130.402344 361.296875,141.023438 347.734375,141.023438 Z" id="Shape" fill="#FFFFFF"/>
            <path d="M669.496094,140.890625 C667.066406,140.503906 665.273438,137.785156 665.273438,133.511719 L665.273438,81.972656 L650.816406,81.972656 L650.816406,88.316406 L650.945312,88.316406 C645.316406,84.300781 638.28125,81.972656 630.09375,81.972656 C608.597656,81.972656 594.78125,98.027344 594.78125,117.710938 C594.78125,137.394531 608.597656,153.453125 630.09375,153.453125 C639.433594,153.453125 647.363281,150.34375 653.25,145.296875 C655.550781,149.957031 659.773438,153.453125 667.578125,153.453125 C667.960938,153.453125 669.113281,153.453125 669.496094,153.453125 C672.953125,153.453125 675.765625,150.605469 675.765625,147.109375 C675.765625,143.613281 672.953125,140.890625 669.496094,140.890625 Z M630.09375,141.023438 C616.53125,141.023438 609.238281,130.402344 609.238281,117.710938 C609.238281,105.023438 616.53125,94.402344 630.09375,94.402344 C643.652344,94.402344 650.945312,105.023438 650.945312,117.710938 C650.816406,130.402344 643.652344,141.023438 630.09375,141.023438 Z" id="Shape" fill="#FFFFFF"/>
            <path d="M439.464844,82.101562 L434.347656,82.101562 C427.054688,82.101562 422.320312,83.914062 417.714844,88.1875 L417.714844,81.972656 L403.257812,81.972656 L403.257812,146.203125 C403.257812,150.085938 405.816406,153.582031 410.550781,153.582031 C414.902344,153.582031 417.84375,150.34375 417.84375,146.203125 L417.84375,117.324219 C417.84375,106.574219 423.601562,95.699219 434.730469,95.4375 L439.210938,95.4375 C443.175781,95.4375 446.503906,92.71875 446.503906,88.835938 C446.375,84.5625 443.175781,82.230469 439.464844,82.101562 Z" id="Path" fill="#FFFFFF"/>
            <path d="M743.574219,142.703125 L719.265625,111.109375 L740.886719,94.015625 C742.933594,92.460938 744.339844,90.777344 744.339844,88.445312 C744.339844,84.820312 741.527344,82.101562 737.6875,82.101562 C736.28125,82.101562 734.488281,82.617188 733.210938,83.65625 L699.945312,109.941406 L699.945312,46.617188 L685.488281,46.617188 L685.488281,146.460938 C685.488281,150.476562 688.433594,153.839844 692.78125,153.839844 C697.132812,153.839844 700.074219,150.605469 700.074219,146.460938 L700.074219,126.777344 L709.03125,119.394531 L733.339844,150.992188 C734.617188,152.675781 736.152344,153.839844 738.328125,153.839844 C742.804688,153.839844 745.234375,150.734375 745.234375,147.109375 C745.109375,145.164062 744.46875,143.871094 743.574219,142.703125 Z" id="Path" fill="#FFFFFF"/>
            <path d="M491.917969,140.890625 C480.535156,140.890625 479.511719,130.273438 479.511719,128.070312 L479.511719,95.308594 L491.792969,95.308594 C495.375,95.308594 498.316406,92.589844 498.316406,88.703125 C498.316406,84.820312 495.375,82.101562 491.792969,82.101562 L479.511719,82.101562 L479.511719,46.488281 L465.054688,46.488281 L465.054688,82.101562 L462.109375,82.101562 C458.527344,82.101562 455.585938,84.820312 455.585938,88.703125 C455.585938,92.589844 458.527344,95.308594 462.109375,95.308594 L465.054688,95.308594 L465.054688,128.332031 C465.179688,138.433594 474.136719,153.582031 492.046875,153.582031 C495.503906,153.582031 498.316406,150.734375 498.316406,147.238281 C498.1875,143.742188 495.375,140.890625 491.917969,140.890625 Z" id="Path" fill="#FFFFFF"/>
            <path d="M790.398438,140.890625 C779.011719,140.890625 777.988281,130.273438 777.988281,128.070312 L777.988281,95.308594 L790.269531,95.308594 C793.851562,95.308594 796.796875,92.589844 796.796875,88.703125 C796.796875,84.820312 793.851562,82.101562 790.269531,82.101562 L777.988281,82.101562 L777.988281,46.488281 L763.53125,46.488281 L763.53125,82.101562 L760.589844,82.101562 C757.007812,82.101562 754.0625,84.820312 754.0625,88.703125 C754.0625,92.589844 757.007812,95.308594 760.589844,95.308594 L763.53125,95.308594 L763.53125,128.332031 C763.660156,138.433594 772.613281,153.582031 790.527344,153.582031 C793.980469,153.582031 796.796875,150.734375 796.796875,147.238281 C796.667969,143.742188 793.851562,140.890625 790.398438,140.890625 Z" id="Path" fill="#FFFFFF"/>
            <path d="M582.753906,82.101562 L570.601562,82.101562 L570.730469,72 C570.855469,69.796875 571.753906,59.179688 582.882812,59.179688 L589.28125,59.179688 L589.28125,46.488281 L581.21875,46.488281 C564.460938,47.394531 556.144531,61.898438 556.015625,71.742188 L556.015625,82.101562 L553.074219,82.101562 C549.492188,82.101562 546.550781,84.820312 546.550781,88.703125 C546.550781,92.589844 549.492188,95.308594 553.074219,95.308594 L556.015625,95.308594 L556.015625,146.203125 C556.015625,150.214844 558.960938,153.582031 563.308594,153.582031 C567.660156,153.582031 570.601562,150.34375 570.601562,146.203125 L570.601562,95.308594 L582.753906,95.308594 C586.335938,95.308594 589.28125,92.589844 589.28125,88.703125 C589.28125,84.691406 586.335938,82.101562 582.753906,82.101562 Z" id="Path" fill="#FFFFFF"/>
            <path d="M260.992188,74.589844 C237.578125,50.890625 199.328125,50.890625 175.914062,74.589844 L165.039062,85.984375 C164.65625,86.246094 164.273438,86.503906 164.015625,86.890625 C164.015625,86.890625 163.886719,86.890625 163.886719,87.023438 C156.980469,93.625 148.023438,97.121094 138.554688,96.863281 C129.089844,96.605469 120.261719,92.589844 113.863281,85.726562 C100.429688,71.351562 101.070312,48.691406 115.273438,35.09375 C129.472656,21.496094 151.863281,22.144531 165.296875,36.386719 C167.855469,39.109375 169.773438,42.214844 171.4375,45.453125 C174.632812,51.539062 181.671875,54.128906 187.941406,51.28125 C188.066406,51.28125 188.195312,51.152344 188.195312,51.152344 C194.082031,48.042969 196.640625,40.660156 193.699219,34.574219 C191.011719,28.878906 187.429688,23.699219 183.207031,19.164062 C160.433594,-5.179688 122.308594,-6.214844 98.128906,16.835938 C86.101562,28.359375 79.832031,43.640625 79.320312,59.179688 C79.191406,65.007812 79.832031,70.964844 81.242188,76.660156 C81.496094,77.566406 81.753906,78.476562 82.007812,79.511719 C82.265625,80.417969 82.648438,81.324219 82.902344,82.230469 C82.902344,82.230469 82.902344,82.359375 82.902344,82.359375 C83.160156,83.265625 83.542969,84.042969 83.925781,84.820312 C83.925781,84.949219 84.054688,84.949219 84.054688,85.078125 C84.4375,85.855469 84.695312,86.632812 85.078125,87.410156 C85.207031,87.539062 85.207031,87.667969 85.207031,87.796875 C85.589844,88.574219 85.972656,89.222656 86.359375,90 C86.484375,90.128906 86.484375,90.386719 86.613281,90.519531 C86.996094,91.164062 87.382812,91.8125 87.765625,92.589844 C87.894531,92.847656 88.019531,92.976562 88.148438,93.238281 C88.53125,93.886719 88.917969,94.53125 89.429688,95.179688 C89.554688,95.4375 89.683594,95.566406 89.8125,95.828125 C90.195312,96.476562 90.707031,96.992188 91.089844,97.640625 C91.21875,97.898438 91.476562,98.160156 91.601562,98.289062 C92.113281,98.933594 92.5,99.453125 93.011719,100.101562 C93.136719,100.359375 93.265625,100.488281 93.523438,100.75 C94.160156,101.523438 94.929688,102.300781 95.570312,103.078125 C105.164062,113.308594 117.574219,119.785156 131.265625,121.597656 C131.136719,121.726562 131.007812,121.855469 131.007812,122.113281 C128.066406,127.035156 128.707031,133.511719 132.925781,137.65625 C137.789062,142.445312 145.722656,142.316406 150.453125,137.394531 L193.3125,92.589844 C205.082031,80.675781 223.25,78.992188 236.8125,87.410156 C239.117188,88.835938 241.289062,90.519531 243.210938,92.589844 C257.027344,106.574219 257.027344,129.238281 243.210938,143.222656 C236.554688,149.957031 227.601562,153.710938 218.261719,153.710938 L60.769531,153.710938 C60.386719,153.710938 60.003906,153.710938 59.617188,153.710938 C59.363281,153.710938 59.234375,153.710938 58.980469,153.710938 C58.46875,153.710938 58.082031,153.710938 57.570312,153.582031 C55.011719,153.324219 52.582031,152.804688 50.152344,152.027344 C44.777344,150.34375 39.917969,147.367188 35.824219,143.222656 C29.167969,136.488281 25.460938,127.425781 25.460938,117.839844 C25.460938,108.257812 29.167969,99.324219 35.824219,92.589844 C41.324219,87.023438 48.359375,83.523438 56.164062,82.488281 L56.675781,82.488281 C63.457031,81.710938 68.320312,75.367188 67.421875,68.503906 C66.65625,61.640625 60.386719,56.71875 53.605469,57.625 L52.839844,57.753906 C51.175781,58.015625 49.511719,58.273438 47.976562,58.660156 C36.71875,61.121094 26.484375,66.691406 18.167969,75.109375 C6.78125,86.632812 0.511719,101.914062 0.640625,118.230469 C0.640625,134.546875 6.910156,149.828125 18.296875,161.351562 C29.679688,172.878906 44.777344,179.222656 60.769531,179.222656 L218.515625,179.222656 C220.308594,179.222656 221.972656,179.09375 223.761719,178.964844 C237.835938,177.667969 250.886719,171.582031 260.992188,161.351562 C284.53125,137.007812 284.53125,98.417969 260.992188,74.589844 Z M245.894531,94.015625 C245.769531,93.886719 245.769531,93.886719 245.640625,93.753906 C245.769531,93.886719 245.894531,94.015625 245.894531,94.015625 Z M140.988281,98.804688 C140.601562,98.804688 140.21875,98.933594 139.964844,98.933594 C140.347656,98.933594 140.730469,98.933594 140.988281,98.804688 Z M147,97.511719 C146.871094,97.511719 146.746094,97.511719 146.617188,97.640625 C146.746094,97.511719 146.871094,97.511719 147,97.511719 Z M145.082031,98.027344 C144.953125,98.027344 144.699219,98.160156 144.570312,98.160156 C144.699219,98.027344 144.824219,98.027344 145.082031,98.027344 Z M143.035156,98.417969 C142.90625,98.417969 142.777344,98.417969 142.523438,98.546875 C142.777344,98.546875 142.90625,98.546875 143.035156,98.417969 Z M138.941406,99.066406 C138.683594,99.066406 138.300781,99.066406 138.042969,99.195312 C138.300781,99.195312 138.683594,99.066406 138.941406,99.066406 Z M136.894531,99.195312 C136.253906,99.195312 135.484375,99.195312 134.71875,99.195312 C135.484375,99.324219 136.125,99.324219 136.894531,99.195312 Z M237.066406,87.28125 C238.476562,88.058594 239.753906,88.964844 241.035156,89.871094 C239.753906,88.964844 238.476562,88.058594 237.066406,87.28125 Z M241.929688,90.519531 C241.800781,90.386719 241.800781,90.386719 241.675781,90.257812 C241.675781,90.257812 241.800781,90.386719 241.929688,90.519531 Z" id="Shape" fill="url(#linearGradient-1)"/>
        </g>
    </g>
</svg>